<svg width="1310" height="534" viewBox="0 0 1310 534" fill="none" xmlns="http://www.w3.org/2000/svg">
<path d="M758.416 77.5198L820.429 77.5537C819.698 122.809 820.274 169.513 820.274 214.856L820.355 454.839C803.095 454.605 785.415 454.782 768.118 454.767L758.44 454.821C757.303 384.002 758.314 240.769 758.314 240.769L682.235 290.042L582.255 290.065L582.198 454.821L519.688 454.821L519.654 333.199L519.679 77.5272C540.404 77.3065 561.496 77.5139 582.25 77.5198L582.26 239.788H758.314L758.416 77.5198Z" fill="#1A3A36"/>
<path d="M1254.24 86.0647C1254.24 86.0647 1254.21 231.229 1254.24 241.077C1272.51 241.275 1291.1 241.102 1309.39 241.112L1309.46 291.935C1291.54 292.384 1272.23 292.066 1254.2 292.096L1254.17 454.864C1234.44 454.728 1214.71 454.72 1194.98 454.839C1193.18 454.752 1193.97 455.05 1192.56 453.833C1191.81 450.224 1192.25 416.675 1192.24 410.593L1192.18 291.898C1174.48 292.081 1156.78 292.121 1139.08 292.018L1139.13 241.116L1192.17 241.079C1192.45 224.858 1192.18 131.63 1192.18 131.63L1254.24 86.0647Z" fill="#1A3A36"/>
<path d="M1029.04 116.648L1091.3 116.673L1091.28 454.858C1070.51 454.74 1049.74 454.732 1028.96 454.832L1029.04 116.648Z" fill="#1A3A36"/>
<path d="M895.432 194.815L956.675 194.882L956.69 454.845C936.322 454.632 915.748 454.797 895.365 454.821L895.432 194.815Z" fill="#1A3A36"/>
<path d="M895.409 116.628L956.697 116.674L956.705 165.269C936.647 165.644 915.504 165.303 895.365 165.305L895.409 116.628Z" fill="#1A3A36"/>
<path d="M0.000947529 533.718L10.938 527.503V6.44205L0.000947529 0.228271V533.718ZM19.8847 522.42L30.6208 516.32V17.6255L19.8847 11.5253V522.42ZM39.5675 511.237L51.1982 504.628V29.3174L39.5675 22.7087V511.237ZM60.145 499.545L70.881 493.444V40.5008L60.145 34.4006V499.545ZM79.8277 488.361L91.4585 481.753V52.1927L79.8277 45.584V488.361ZM100.405 476.669L111.141 470.569V63.3761L100.405 57.2759V476.669ZM120.088 465.486L131.719 458.878V75.068L120.088 68.4593V465.486Z" fill="#1A3A36"/>
<path d="M348.003 311.467C345 302.597 341.334 294.023 337.066 285.8V6.44205L348.003 0.228271V311.467ZM328.119 270.42C324.785 265.274 321.201 260.298 317.383 255.51V17.6255L328.119 11.5253V270.42ZM308.436 245.091C304.731 241.08 300.85 237.228 296.806 233.546V29.3174L308.436 22.7087V245.091ZM287.859 225.894C284.381 223.1 280.8 220.425 277.123 217.874V40.5008L287.859 34.4006V225.894ZM268.176 212.031C264.387 209.704 260.508 207.504 256.545 205.438V52.1927L268.176 45.584V212.031ZM247.599 201.062C244.077 199.453 240.497 197.946 236.863 196.545V63.3761L247.599 57.2759V129.169V201.062ZM227.916 193.349C224.092 192.089 220.213 190.943 216.285 189.918V75.068L227.916 68.4593V193.349Z" fill="#1A3A36"/>
<path d="M166.73 193.218C266.844 193.218 348.002 274.376 348.002 374.49V533.832L337.614 527.906V374.49C337.614 280.113 261.107 203.606 166.73 203.606C158.442 203.606 150.291 204.198 142.318 205.338V194.851C150.303 193.776 158.452 193.218 166.73 193.218ZM166.73 213.994C255.943 213.995 328.265 286.316 328.265 375.529V522.571L317.877 516.644V375.529C317.877 292.053 250.206 224.382 166.73 224.382C158.419 224.382 150.265 225.055 142.318 226.345V215.827C150.28 214.621 158.432 213.994 166.73 213.994ZM166.729 233.732C244.468 233.732 307.488 296.751 307.488 374.49V510.716L297.1 504.788V374.49C297.099 302.488 238.731 244.12 166.729 244.119C158.386 244.119 150.226 244.905 142.318 246.403V235.842C150.247 234.456 158.404 233.732 166.729 233.732ZM166.729 253.469C233.567 253.469 287.751 307.652 287.751 374.49V499.454L277.362 493.528V374.49C277.362 313.389 227.83 263.857 166.729 263.857C158.342 263.857 150.172 264.792 142.318 266.561V255.932C150.203 254.317 158.367 253.469 166.729 253.469ZM166.729 273.206C222.667 273.206 268.013 318.552 268.014 374.49V488.194L257.625 482.266V374.49C257.625 324.29 216.929 283.594 166.729 283.594C158.273 283.594 150.086 284.75 142.318 286.91V276.168C150.137 274.233 158.313 273.206 166.729 273.206ZM166.729 293.983C211.766 293.983 248.276 330.492 248.276 375.529V476.932L237.888 471.004V375.529C237.887 336.229 206.029 304.371 166.729 304.37C158.154 304.37 149.932 305.888 142.318 308.668V297.699C150.026 295.284 158.226 293.983 166.729 293.983ZM166.729 313.72C200.865 313.72 228.539 341.393 228.539 375.529V465.67L218.15 459.742V375.529C218.15 347.13 195.128 324.108 166.729 324.108C157.895 324.108 149.581 326.335 142.318 330.26V318.729C149.807 315.506 158.06 313.72 166.729 313.72Z" fill="#1A3A36"/>
</svg>
